name rise30.6535peak61.5555fall82.9339.mot
datacolumns 19
datarows 24
range 3.38832000000000 3.42665300000000
endheader
time	ground_force1_vx	ground_force1_vy	ground_force1_vz	ground_force1_px	ground_force1_py	ground_force1_pz	ground_force2_vx	ground_force2_vy	ground_force2_vz	ground_force2_px	ground_force2_py	ground_force2_pz	ground_torque1_x	ground_torque1_y	ground_torque1_z	ground_torque2_x	ground_torque2_y	ground_torque2_z	
3.38832000000000	58.07293900000000	775.04181100000005	55.00597600000000	0.30111400000000	0.00000000000000	0.11604700000000	0.00000000000000	0.00000000000000	0.00000000000000	0.00000000000000	0.00000000000000	0.00000000000000	0.00000000000000	18.85943700000000	0.00000000000000	0.00000000000000	0.00000000000000	0.00000000000000	
3.38998600000000	57.49353300000000	777.30282599999998	55.04378100000000	0.30040600000000	0.00000000000000	0.11606400000000	0.00000000000000	0.00000000000000	0.00000000000000	0.00000000000000	0.00000000000000	0.00000000000000	0.00000000000000	18.89236000000000	0.00000000000000	0.00000000000000	0.00000000000000	0.00000000000000	
3.39165400000000	56.91762300000000	779.43101799999999	55.07830100000000	0.29971900000000	0.00000000000000	0.11608100000000	0.00000000000000	0.00000000000000	0.00000000000000	0.00000000000000	0.00000000000000	0.00000000000000	0.00000000000000	18.92449200000000	0.00000000000000	0.00000000000000	0.00000000000000	0.00000000000000	
3.39331600000000	56.34522100000000	781.42500399999994	55.10970000000000	0.29905000000000	0.00000000000000	0.11609900000000	0.00000000000000	0.00000000000000	0.00000000000000	0.00000000000000	0.00000000000000	0.00000000000000	0.00000000000000	18.95588100000000	0.00000000000000	0.00000000000000	0.00000000000000	0.00000000000000	
3.39498200000000	55.77627400000000	783.28356399999996	55.13808700000000	0.29839700000000	0.00000000000000	0.11611700000000	0.00000000000000	0.00000000000000	0.00000000000000	0.00000000000000	0.00000000000000	0.00000000000000	0.00000000000000	18.98654700000000	0.00000000000000	0.00000000000000	0.00000000000000	0.00000000000000	
3.39665300000000	55.21067200000000	785.00565099999994	55.16352000000000	0.29775800000000	0.00000000000000	0.11613500000000	0.00000000000000	0.00000000000000	0.00000000000000	0.00000000000000	0.00000000000000	0.00000000000000	0.00000000000000	19.01648100000000	0.00000000000000	0.00000000000000	0.00000000000000	0.00000000000000	
3.39831900000000	54.64825100000000	786.59040700000003	55.18600600000000	0.29713000000000	0.00000000000000	0.11615300000000	0.00000000000000	0.00000000000000	0.00000000000000	0.00000000000000	0.00000000000000	0.00000000000000	0.00000000000000	19.04564900000000	0.00000000000000	0.00000000000000	0.00000000000000	0.00000000000000	
3.39998400000000	54.08880100000000	788.03716499999996	55.20550700000000	0.29651100000000	0.00000000000000	0.11617200000000	0.00000000000000	0.00000000000000	0.00000000000000	0.00000000000000	0.00000000000000	0.00000000000000	0.00000000000000	19.07399600000000	0.00000000000000	0.00000000000000	0.00000000000000	0.00000000000000	
3.40164600000000	53.53206900000000	789.34546599999999	55.22194200000000	0.29589900000000	0.00000000000000	0.11619100000000	0.00000000000000	0.00000000000000	0.00000000000000	0.00000000000000	0.00000000000000	0.00000000000000	0.00000000000000	19.10144300000000	0.00000000000000	0.00000000000000	0.00000000000000	0.00000000000000	
3.40331300000000	52.97776500000000	790.51505899999995	55.23519200000000	0.29529000000000	0.00000000000000	0.11621100000000	0.00000000000000	0.00000000000000	0.00000000000000	0.00000000000000	0.00000000000000	0.00000000000000	0.00000000000000	19.12789200000000	0.00000000000000	0.00000000000000	0.00000000000000	0.00000000000000	
3.40498700000000	52.42556900000000	791.54590900000005	55.24510500000000	0.29468400000000	0.00000000000000	0.11623200000000	0.00000000000000	0.00000000000000	0.00000000000000	0.00000000000000	0.00000000000000	0.00000000000000	0.00000000000000	19.15322900000000	0.00000000000000	0.00000000000000	0.00000000000000	0.00000000000000	
3.40665400000000	51.87513300000000	792.43820900000003	55.25149600000000	0.29407700000000	0.00000000000000	0.11625300000000	0.00000000000000	0.00000000000000	0.00000000000000	0.00000000000000	0.00000000000000	0.00000000000000	0.00000000000000	19.17732400000000	0.00000000000000	0.00000000000000	0.00000000000000	0.00000000000000	
3.40832000000000	51.32609100000000	793.19237599999997	55.25415800000000	0.29346700000000	0.00000000000000	0.11627500000000	0.00000000000000	0.00000000000000	0.00000000000000	0.00000000000000	0.00000000000000	0.00000000000000	0.00000000000000	19.20003400000000	0.00000000000000	0.00000000000000	0.00000000000000	0.00000000000000	
3.40998300000000	50.77806000000000	793.80905700000005	55.25285700000000	0.29285100000000	0.00000000000000	0.11629800000000	0.00000000000000	0.00000000000000	0.00000000000000	0.00000000000000	0.00000000000000	0.00000000000000	0.00000000000000	19.22120600000000	0.00000000000000	0.00000000000000	0.00000000000000	0.00000000000000	
3.41164800000000	50.23065000000000	794.28913399999999	55.24734600000000	0.29222900000000	0.00000000000000	0.11632200000000	0.00000000000000	0.00000000000000	0.00000000000000	0.00000000000000	0.00000000000000	0.00000000000000	0.00000000000000	19.24067800000000	0.00000000000000	0.00000000000000	0.00000000000000	0.00000000000000	
3.41331200000000	49.68346400000000	794.63372300000003	55.23736100000000	0.29159700000000	0.00000000000000	0.11634700000000	0.00000000000000	0.00000000000000	0.00000000000000	0.00000000000000	0.00000000000000	0.00000000000000	0.00000000000000	19.25828300000000	0.00000000000000	0.00000000000000	0.00000000000000	0.00000000000000	
3.41498200000000	49.13610700000000	794.84417399999995	55.22263200000000	0.29095300000000	0.00000000000000	0.11637300000000	0.00000000000000	0.00000000000000	0.00000000000000	0.00000000000000	0.00000000000000	0.00000000000000	0.00000000000000	19.27384900000000	0.00000000000000	0.00000000000000	0.00000000000000	0.00000000000000	
3.41665200000000	48.58818900000000	794.92206899999996	55.20288000000000	0.29029600000000	0.00000000000000	0.11639900000000	0.00000000000000	0.00000000000000	0.00000000000000	0.00000000000000	0.00000000000000	0.00000000000000	0.00000000000000	19.28720300000000	0.00000000000000	0.00000000000000	0.00000000000000	0.00000000000000	
3.41831800000000	48.03933200000000	794.86922200000004	55.17782800000000	0.28962300000000	0.00000000000000	0.11642700000000	0.00000000000000	0.00000000000000	0.00000000000000	0.00000000000000	0.00000000000000	0.00000000000000	0.00000000000000	19.29817100000000	0.00000000000000	0.00000000000000	0.00000000000000	0.00000000000000	
3.41998200000000	47.48916900000000	794.68767600000001	55.14720000000000	0.28893300000000	0.00000000000000	0.11645600000000	0.00000000000000	0.00000000000000	0.00000000000000	0.00000000000000	0.00000000000000	0.00000000000000	0.00000000000000	19.30658400000000	0.00000000000000	0.00000000000000	0.00000000000000	0.00000000000000	
3.42165000000000	46.93735700000000	794.37969799999996	55.11072700000000	0.28822500000000	0.00000000000000	0.11648500000000	0.00000000000000	0.00000000000000	0.00000000000000	0.00000000000000	0.00000000000000	0.00000000000000	0.00000000000000	19.31227600000000	0.00000000000000	0.00000000000000	0.00000000000000	0.00000000000000	
3.42331400000000	46.38357000000000	793.94777399999998	55.06814700000000	0.28749600000000	0.00000000000000	0.11651600000000	0.00000000000000	0.00000000000000	0.00000000000000	0.00000000000000	0.00000000000000	0.00000000000000	0.00000000000000	19.31508600000000	0.00000000000000	0.00000000000000	0.00000000000000	0.00000000000000	
3.42498300000000	45.82751300000000	793.39460399999996	55.01921400000000	0.28674500000000	0.00000000000000	0.11654800000000	0.00000000000000	0.00000000000000	0.00000000000000	0.00000000000000	0.00000000000000	0.00000000000000	0.00000000000000	19.31486400000000	0.00000000000000	0.00000000000000	0.00000000000000	0.00000000000000	
3.42665300000000	45.26891800000000	792.72309499999994	54.96369600000000	0.28597100000000	0.00000000000000	0.11658100000000	0.00000000000000	0.00000000000000	0.00000000000000	0.00000000000000	0.00000000000000	0.00000000000000	0.00000000000000	19.31146700000000	0.00000000000000	0.00000000000000	0.00000000000000	0.00000000000000	
